<svg width="19" height="46" viewBox="0 0 19 46" fill="none" xmlns="http://www.w3.org/2000/svg">
<mask id="path-1-outside-1_318_204" maskUnits="userSpaceOnUse" x="-2" y="-2" width="23" height="50" fill="black">
<rect fill="white" x="-2" y="-2" width="23" height="50"/>
<path d="M9.944 7.56H6.68C4.888 7.56 3.45867 6.89866 2.392 5.576C1.32533 4.21067 0.792 2.41867 0.792 0.199997H14.552C15.6613 0.199997 16.6 0.562664 17.368 1.288C18.136 2.01333 18.52 2.86667 18.52 3.848V39.24C18.52 41.288 17.7733 42.8667 16.28 43.976C14.8293 45.0427 12.7173 45.576 9.944 45.576V7.56Z"/>
</mask>
<path d="M9.944 7.56H11.944V5.56H9.944V7.56ZM2.392 5.576L0.815953 6.80729L0.825469 6.81947L0.835174 6.8315L2.392 5.576ZM0.792 0.199997V-1.8H-1.208V0.199997H0.792ZM17.368 1.288L15.9948 2.74202H15.9948L17.368 1.288ZM16.28 43.976L17.4648 45.5873L17.4726 45.5815L16.28 43.976ZM9.944 45.576H7.944V47.576H9.944V45.576ZM9.944 5.56H6.68V9.56H9.944V5.56ZM6.68 5.56C5.45474 5.56 4.61254 5.1435 3.94883 4.32049L0.835174 6.8315C2.30479 8.65383 4.32126 9.56 6.68 9.56V5.56ZM3.96805 4.34471C3.24506 3.41929 2.792 2.09912 2.792 0.199997H-1.208C-1.208 2.73821 -0.594395 5.00204 0.815953 6.80729L3.96805 4.34471ZM0.792 2.2H14.552V-1.8H0.792V2.2ZM14.552 2.2C15.1789 2.2 15.618 2.38625 15.9948 2.74202L18.7412 -0.166027C17.582 -1.26092 16.1438 -1.8 14.552 -1.8V2.2ZM15.9948 2.74202C16.3968 3.12177 16.52 3.46217 16.52 3.848H20.52C20.52 2.27117 19.8752 0.904896 18.7412 -0.166027L15.9948 2.74202ZM16.52 3.848V39.24H20.52V3.848H16.52ZM16.52 39.24C16.52 40.7291 16.0163 41.6804 15.0874 42.3705L17.4726 45.5815C19.5304 44.0529 20.52 41.8469 20.52 39.24H16.52ZM15.0952 42.3647C14.1286 43.0754 12.5072 43.576 9.944 43.576V47.576C12.9275 47.576 15.53 47.0099 17.4648 45.5873L15.0952 42.3647ZM11.944 45.576V7.56H7.944V45.576H11.944Z" fill="#05C581" mask="url(#path-1-outside-1_318_204)"/>
</svg>
