<svg width="37" height="46" viewBox="0 0 37 46" fill="none" xmlns="http://www.w3.org/2000/svg">
<mask id="path-1-outside-1_318_205" maskUnits="userSpaceOnUse" x="-2" y="-2" width="41" height="50" fill="black">
<rect fill="white" x="-2" y="-2" width="41" height="50"/>
<path d="M4.336 46C3.14133 46 2.18133 45.6587 1.456 44.976C0.773333 44.2933 0.432 43.3973 0.432 42.288C0.432 38.96 1.73333 35.9307 4.336 33.2C6.98133 30.4267 11.12 27.76 16.752 25.2C19.44 24.0053 21.488 22.9173 22.896 21.936C24.304 20.912 25.2853 19.8667 25.84 18.8C26.4373 17.6907 26.736 16.368 26.736 14.832C26.736 12.6987 26.0107 11.056 24.56 9.904C23.1093 8.70933 21.0613 8.112 18.416 8.112C12.3573 8.112 9.328 10.608 9.328 15.6C9.328 16.752 9.41333 17.7547 9.584 18.608C9.2 18.6933 8.64533 18.736 7.92 18.736C5.95733 18.736 4.272 18.1813 2.864 17.072C1.49867 15.92 0.816 14.512 0.816 12.848C0.816 10.5867 1.584 8.51733 3.12 6.64C4.656 4.76266 6.768 3.29066 9.456 2.224C12.144 1.15733 15.1307 0.623997 18.416 0.623997C21.7867 0.623997 24.752 1.22133 27.312 2.416C29.9147 3.568 31.92 5.232 33.328 7.408C34.736 9.54133 35.44 12.016 35.44 14.832C35.44 17.9893 34.2667 20.8693 31.92 23.472C29.5733 26.032 26.0107 28.4 21.232 30.576C17.52 32.2827 14.768 33.7973 12.976 35.12C11.2267 36.4 10.288 37.5947 10.16 38.704H29.616C31.7493 38.704 33.3707 39.3227 34.48 40.56C35.5893 41.7973 36.144 43.6107 36.144 46H4.336Z"/>
</mask>
<path d="M1.456 44.976L0.0417864 46.3902L0.0632091 46.4116L0.0852706 46.4324L1.456 44.976ZM4.336 33.2L2.88878 31.8196L2.88826 31.8201L4.336 33.2ZM16.752 25.2L15.9397 23.3724L15.932 23.3758L15.9244 23.3793L16.752 25.2ZM22.896 21.936L24.0396 23.5768L24.0561 23.5653L24.0723 23.5535L22.896 21.936ZM25.84 18.8L24.0791 17.8518L24.0722 17.8645L24.0656 17.8773L25.84 18.8ZM24.56 9.904L23.2886 11.4479L23.3023 11.4592L23.3162 11.4702L24.56 9.904ZM9.584 18.608L10.0179 20.5604L11.9291 20.1356L11.5452 18.2158L9.584 18.608ZM2.864 17.072L1.57426 18.6006L1.5999 18.6222L1.62626 18.643L2.864 17.072ZM3.12 6.64L4.66791 7.90648H4.66792L3.12 6.64ZM9.456 2.224L10.1937 4.08298L10.1937 4.08298L9.456 2.224ZM27.312 2.416L26.4662 4.22836L26.4843 4.23679L26.5025 4.24485L27.312 2.416ZM33.328 7.408L31.6489 8.4945L31.6538 8.50211L31.6588 8.50968L33.328 7.408ZM31.92 23.472L33.3943 24.8234L33.3999 24.8174L33.4054 24.8113L31.92 23.472ZM21.232 30.576L20.4032 28.7558L20.3965 28.7589L21.232 30.576ZM12.976 35.12L14.157 36.7341L14.1637 36.7291L12.976 35.12ZM10.16 38.704L8.17318 38.4748L7.91596 40.704H10.16V38.704ZM34.48 40.56L35.9691 39.2249V39.2249L34.48 40.56ZM36.144 46V48H38.144V46H36.144ZM4.336 44C3.54306 44 3.10941 43.7857 2.82673 43.5196L0.0852706 46.4324C1.25325 47.5317 2.7396 48 4.336 48V44ZM2.87021 43.5618C2.6192 43.3108 2.432 42.9527 2.432 42.288H-1.568C-1.568 43.842 -1.07253 45.2759 0.0417864 46.3902L2.87021 43.5618ZM2.432 42.288C2.432 39.5435 3.48441 36.9923 5.78374 34.5799L2.88826 31.8201C-0.0177406 34.869 -1.568 38.3765 -1.568 42.288H2.432ZM5.78322 34.5804C8.1769 32.0709 12.0549 29.532 17.5796 27.0207L15.9244 23.3793C10.1851 25.988 5.78577 28.7824 2.88878 31.8196L5.78322 34.5804ZM17.5643 27.0276C20.2988 25.8123 22.4794 24.6642 24.0396 23.5768L21.7524 20.2952C20.4966 21.1705 18.5812 22.1984 15.9397 23.3724L17.5643 27.0276ZM24.0723 23.5535C25.6267 22.423 26.8674 21.1592 27.6144 19.7227L24.0656 17.8773C23.7032 18.5741 22.9813 19.401 21.7197 20.3185L24.0723 23.5535ZM27.6009 19.7482C28.386 18.2902 28.736 16.6272 28.736 14.832H24.736C24.736 16.1088 24.4886 17.0912 24.0791 17.8518L27.6009 19.7482ZM28.736 14.832C28.736 12.1928 27.8083 9.9296 25.8038 8.33778L23.3162 11.4702C24.2131 12.1824 24.736 13.2045 24.736 14.832H28.736ZM25.8314 8.36014C23.9013 6.77062 21.3389 6.112 18.416 6.112V10.112C20.7838 10.112 22.3174 10.648 23.2886 11.4479L25.8314 8.36014ZM18.416 6.112C15.1624 6.112 12.3504 6.77429 10.3282 8.44045C8.23187 10.1677 7.328 12.6826 7.328 15.6H11.328C11.328 13.5254 11.9388 12.2963 12.8718 11.5275C13.8789 10.6977 15.6109 10.112 18.416 10.112V6.112ZM7.328 15.6C7.328 16.8442 7.4196 17.984 7.62284 19.0002L11.5452 18.2158C11.4071 17.5253 11.328 16.6598 11.328 15.6H7.328ZM9.15014 16.6556C8.9812 16.6932 8.5997 16.736 7.92 16.736V20.736C8.69096 20.736 9.4188 20.6935 10.0179 20.5604L9.15014 16.6556ZM7.92 16.736C6.36105 16.736 5.123 16.3056 4.10174 15.501L1.62626 18.643C3.421 20.057 5.55362 20.736 7.92 20.736V16.736ZM4.15374 15.5434C3.20109 14.7396 2.816 13.8751 2.816 12.848H-1.184C-1.184 15.1489 -0.203761 17.1004 1.57426 18.6006L4.15374 15.5434ZM2.816 12.848C2.816 11.0832 3.40144 9.45438 4.66791 7.90648L1.57209 5.37352C-0.233444 7.58028 -1.184 10.0902 -1.184 12.848H2.816ZM4.66792 7.90648C5.95069 6.33863 7.761 5.04833 10.1937 4.08298L8.71831 0.365017C5.775 1.533 3.36131 3.1867 1.57209 5.37352L4.66792 7.90648ZM10.1937 4.08298C12.6172 3.12128 15.3492 2.624 18.416 2.624V-1.376C14.9122 -1.376 11.6708 -0.806622 8.71831 0.365019L10.1937 4.08298ZM18.416 2.624C21.5501 2.624 24.2173 3.17885 26.4662 4.22836L28.1578 0.60363C25.2867 -0.736193 22.0232 -1.376 18.416 -1.376V2.624ZM26.5025 4.24485C28.7856 5.25539 30.4729 6.67715 31.6489 8.4945L35.0071 6.3215C33.3671 3.78685 31.0438 1.88061 28.1215 0.587139L26.5025 4.24485ZM31.6588 8.50968C32.8293 10.2832 33.44 12.3663 33.44 14.832H37.44C37.44 11.6657 36.6427 8.7995 34.9972 6.30631L31.6588 8.50968ZM33.44 14.832C33.44 17.4389 32.4893 19.8539 30.4346 22.1327L33.4054 24.8113C36.044 21.8848 37.44 18.5397 37.44 14.832H33.44ZM30.4457 22.1205C28.349 24.4079 25.0505 26.6396 20.4032 28.7558L22.0608 32.3962C26.9709 30.1604 30.7977 27.6561 33.3943 24.8234L30.4457 22.1205ZM20.3965 28.7589C16.6448 30.4838 13.7459 32.0659 11.7883 33.5109L14.1637 36.7291C15.7901 35.5287 18.3952 34.0816 22.0675 32.3931L20.3965 28.7589ZM11.795 33.5059C9.97299 34.8391 8.40393 36.4749 8.17318 38.4748L12.1468 38.9332C12.1721 38.7144 12.4803 37.9609 14.157 36.7341L11.795 33.5059ZM10.16 40.704H29.616V36.704H10.16V40.704ZM29.616 40.704C31.3528 40.704 32.3622 41.1939 32.9909 41.8951L35.9691 39.2249C34.3792 37.4515 32.1458 36.704 29.616 36.704V40.704ZM32.9909 41.8951C33.6523 42.6329 34.144 43.8901 34.144 46H38.144C38.144 43.3312 37.5264 40.9618 35.9691 39.2249L32.9909 41.8951ZM36.144 44H4.336V48H36.144V44Z" fill="#4CB6F1" mask="url(#path-1-outside-1_318_205)"/>
</svg>
