<svg width="37" height="47" viewBox="0 0 37 47" fill="none" xmlns="http://www.w3.org/2000/svg">
<mask id="path-1-outside-1_318_220" maskUnits="userSpaceOnUse" x="-2" y="-2" width="41" height="51" fill="black">
<rect fill="white" x="-2" y="-2" width="41" height="51"/>
<path d="M18.48 46.576C14.9813 46.576 11.8667 46.064 9.136 45.04C6.40533 43.9733 4.272 42.5013 2.736 40.624C1.2 38.704 0.432 36.528 0.432 34.096C0.432 32.0907 1.072 30.64 2.352 29.744C3.67467 28.848 5.808 28.4 8.752 28.4C8.624 29.2107 8.56 30.1707 8.56 31.28C8.56 33.84 9.392 35.8027 11.056 37.168C12.7627 38.4907 15.2373 39.152 18.48 39.152C21.68 39.152 24.0907 38.64 25.712 37.616C27.376 36.592 28.208 35.0773 28.208 33.072C28.208 28.8907 25.3707 26.8 19.696 26.8H17.584C16.5173 26.8 15.6427 26.4587 14.96 25.776C14.2773 25.0933 13.936 24.2187 13.936 23.152C13.936 22.0427 14.256 21.168 14.896 20.528C15.5787 19.8453 16.4747 19.504 17.584 19.504H19.76C24.5387 19.504 26.928 17.5627 26.928 13.68C26.928 11.8453 26.224 10.4587 24.816 9.52C23.408 8.53866 21.3813 8.048 18.736 8.048C15.8347 8.048 13.5947 8.56 12.016 9.584C10.4373 10.5653 9.648 11.9947 9.648 13.872C9.648 14.6827 9.73333 15.6 9.904 16.624C7.42933 16.7093 5.40267 16.2827 3.824 15.344C2.288 14.4053 1.52 13.1467 1.52 11.568C1.52 9.43467 2.24533 7.536 3.696 5.872C5.14667 4.208 7.17333 2.928 9.776 2.032C12.4213 1.09333 15.408 0.623997 18.736 0.623997C22.1067 0.623997 25.072 1.15733 27.632 2.224C30.192 3.29066 32.1547 4.82666 33.52 6.832C34.928 8.79466 35.632 11.0773 35.632 13.68C35.632 17.6907 33.5627 20.848 29.424 23.152C32.112 24.304 34.0107 25.648 35.12 27.184C36.272 28.72 36.848 30.6827 36.848 33.072C36.848 35.76 36.08 38.128 34.544 40.176C33.008 42.224 30.8533 43.8027 28.08 44.912C25.3067 46.0213 22.1067 46.576 18.48 46.576Z"/>
</mask>
<path d="M9.136 45.04L8.4083 46.9029L8.42099 46.9079L8.43375 46.9127L9.136 45.04ZM2.736 40.624L1.17426 41.8734L1.18113 41.882L1.18809 41.8905L2.736 40.624ZM2.352 29.744L1.2303 28.0882L1.21762 28.0968L1.20508 28.1055L2.352 29.744ZM8.752 28.4L10.7275 28.7119L11.0926 26.4H8.752V28.4ZM11.056 37.168L9.78737 38.7141L9.80887 38.7318L9.83086 38.7488L11.056 37.168ZM25.712 37.616L24.6638 35.9127L24.6539 35.9188L24.644 35.925L25.712 37.616ZM14.896 20.528L13.4818 19.1138H13.4818L14.896 20.528ZM24.816 9.52L23.6724 11.1608L23.6894 11.1726L23.7066 11.1841L24.816 9.52ZM12.016 9.584L13.0719 11.2826L13.0882 11.2724L13.1044 11.2619L12.016 9.584ZM9.904 16.624L9.97293 18.6228L12.2516 18.5442L11.8768 16.2952L9.904 16.624ZM3.824 15.344L2.7811 17.0506L2.79144 17.0569L2.80185 17.0631L3.824 15.344ZM3.696 5.872L2.18846 4.55773H2.18845L3.696 5.872ZM9.776 2.032L10.427 3.92307L10.4359 3.92L10.4448 3.91685L9.776 2.032ZM27.632 2.224L26.8628 4.07015H26.8628L27.632 2.224ZM33.52 6.832L31.8668 7.95758L31.8806 7.97787L31.8949 7.99781L33.52 6.832ZM29.424 23.152L28.4512 21.4045L24.8923 23.3858L28.6362 24.9903L29.424 23.152ZM35.12 27.184L33.4986 28.355L33.5092 28.3696L33.52 28.384L35.12 27.184ZM34.544 40.176L36.144 41.376L34.544 40.176ZM28.08 44.912L27.3372 43.055L28.08 44.912ZM18.48 44.576C15.1745 44.576 12.3045 44.0922 9.83825 43.1673L8.43375 46.9127C11.4288 48.0358 14.7881 48.576 18.48 48.576V44.576ZM9.8637 43.1771C7.3866 42.2095 5.56113 40.9186 4.28391 39.3575L1.18809 41.8905C2.98287 44.0841 5.42407 45.7372 8.4083 46.9029L9.8637 43.1771ZM4.29774 39.3746C3.04204 37.805 2.432 36.0684 2.432 34.096H-1.568C-1.568 36.9876 -0.642036 39.603 1.17426 41.8734L4.29774 39.3746ZM2.432 34.096C2.432 32.5374 2.90259 31.7999 3.49892 31.3825L1.20508 28.1055C-0.758587 29.4801 -1.568 31.644 -1.568 34.096H2.432ZM3.4737 31.3998C4.28702 30.8489 5.91784 30.4 8.752 30.4V26.4C5.69817 26.4 3.06231 26.8471 1.2303 28.0882L3.4737 31.3998ZM6.77647 28.0881C6.62766 29.0306 6.56 30.0999 6.56 31.28H10.56C10.56 30.2414 10.6203 29.3907 10.7275 28.7119L6.77647 28.0881ZM6.56 31.28C6.56 34.3131 7.57119 36.8957 9.78737 38.7141L12.3246 35.6219C11.2128 34.7096 10.56 33.3669 10.56 31.28H6.56ZM9.83086 38.7488C12.0254 40.4496 15.0061 41.152 18.48 41.152V37.152C15.4686 37.152 13.5 36.5318 12.2811 35.5872L9.83086 38.7488ZM18.48 41.152C21.8322 41.152 24.6905 40.6266 26.78 39.307L24.644 35.925C23.4908 36.6534 21.5278 37.152 18.48 37.152V41.152ZM26.7602 39.3193C29.0345 37.9198 30.208 35.7495 30.208 33.072H26.208C26.208 34.4052 25.7175 35.2642 24.6638 35.9127L26.7602 39.3193ZM30.208 33.072C30.208 30.4799 29.2958 28.2532 27.2664 26.7579C25.3511 25.3466 22.7202 24.8 19.696 24.8V28.8C22.3465 28.8 23.9715 29.2987 24.8936 29.9781C25.7016 30.5734 26.208 31.4827 26.208 33.072H30.208ZM19.696 24.8H17.584V28.8H19.696V24.8ZM17.584 24.8C16.9867 24.8 16.6408 24.6283 16.3742 24.3618L13.5458 27.1902C14.6446 28.289 16.0479 28.8 17.584 28.8V24.8ZM16.3742 24.3618C16.1077 24.0952 15.936 23.7493 15.936 23.152H11.936C11.936 24.6881 12.447 26.0914 13.5458 27.1902L16.3742 24.3618ZM15.936 23.152C15.936 22.4459 16.1266 22.1258 16.3102 21.9422L13.4818 19.1138C12.3854 20.2102 11.936 21.6395 11.936 23.152H15.936ZM16.3102 21.9422C16.5612 21.6912 16.9193 21.504 17.584 21.504V17.504C16.03 17.504 14.5961 17.9995 13.4818 19.1138L16.3102 21.9422ZM17.584 21.504H19.76V17.504H17.584V21.504ZM19.76 21.504C22.3685 21.504 24.696 20.9825 26.3972 19.6002C28.1778 18.1534 28.928 16.0521 28.928 13.68H24.928C24.928 15.1906 24.4835 16.0012 23.8748 16.4958C23.1867 17.0549 21.9302 17.504 19.76 17.504V21.504ZM28.928 13.68C28.928 11.2433 27.9431 9.20102 25.9254 7.8559L23.7066 11.1841C24.5049 11.7163 24.928 12.4473 24.928 13.68H28.928ZM25.9596 7.8792C24.0793 6.56868 21.5838 6.048 18.736 6.048V10.048C21.1788 10.048 22.7367 10.5086 23.6724 11.1608L25.9596 7.8792ZM18.736 6.048C15.6421 6.048 12.9616 6.58673 10.9276 7.90608L13.1044 11.2619C14.2277 10.5333 16.0272 10.048 18.736 10.048V6.048ZM10.9601 7.88543C8.78723 9.23615 7.648 11.3118 7.648 13.872H11.648C11.648 12.6776 12.0874 11.8945 13.0719 11.2826L10.9601 7.88543ZM7.648 13.872C7.648 14.8184 7.74719 15.8487 7.93121 16.9528L11.8768 16.2952C11.7195 15.3513 11.648 14.5469 11.648 13.872H7.648ZM9.83508 14.6252C7.6137 14.7018 5.99928 14.3106 4.84615 13.6249L2.80185 17.0631C4.80605 18.2548 7.24497 18.7169 9.97293 18.6228L9.83508 14.6252ZM4.8669 13.6374C3.82644 13.0016 3.52 12.3413 3.52 11.568H-0.48C-0.48 13.952 0.749557 15.8091 2.7811 17.0506L4.8669 13.6374ZM3.52 11.568C3.52 9.93595 4.05831 8.49992 5.20355 7.18627L2.18845 4.55773C0.432357 6.57208 -0.48 8.93338 -0.48 11.568H3.52ZM5.20355 7.18627C6.37381 5.84391 8.07463 4.73292 10.427 3.92307L9.12497 0.140923C6.27204 1.12308 3.91952 2.57209 2.18846 4.55773L5.20355 7.18627ZM10.4448 3.91685C12.8397 3.06706 15.5946 2.624 18.736 2.624V-1.376C15.2214 -1.376 12.003 -0.880396 9.10718 0.147142L10.4448 3.91685ZM18.736 2.624C21.8981 2.624 24.5929 3.12439 26.8628 4.07015L28.4012 0.377846C25.5511 -0.809727 22.3153 -1.376 18.736 -1.376V2.624ZM26.8628 4.07015C29.1172 5.00948 30.75 6.3173 31.8668 7.95758L35.1732 5.70642C33.5593 3.33603 31.2668 1.57185 28.4012 0.377846L26.8628 4.07015ZM31.8949 7.99781C33.0399 9.59384 33.632 11.4613 33.632 13.68H37.632C37.632 10.6933 36.8161 7.99548 35.1451 5.66618L31.8949 7.99781ZM33.632 13.68C33.632 16.8205 32.093 19.3772 28.4512 21.4045L30.3968 24.8995C35.0324 22.3188 37.632 18.5609 37.632 13.68H33.632ZM28.6362 24.9903C31.1573 26.0708 32.687 27.2312 33.4986 28.355L36.7414 26.013C35.3343 24.0648 33.0667 22.5372 30.2118 21.3137L28.6362 24.9903ZM33.52 28.384C34.3545 29.4967 34.848 31.0079 34.848 33.072H38.848C38.848 30.3575 38.1895 27.9433 36.72 25.984L33.52 28.384ZM34.848 33.072C34.848 35.3504 34.2068 37.2923 32.944 38.976L36.144 41.376C37.9532 38.9637 38.848 36.1696 38.848 33.072H34.848ZM32.944 38.976C31.6626 40.6846 29.8276 42.0589 27.3372 43.055L28.8228 46.769C31.8791 45.5464 34.3534 43.7634 36.144 41.376L32.944 38.976ZM27.3372 43.055C24.8448 44.052 21.9053 44.576 18.48 44.576V48.576C22.3081 48.576 25.7685 47.9907 28.8228 46.769L27.3372 43.055Z" fill="#F59E0B" mask="url(#path-1-outside-1_318_220)"/>
</svg>
