<svg width="40" height="47" viewBox="0 0 40 47" fill="none" xmlns="http://www.w3.org/2000/svg">
<mask id="path-1-outside-1_318_207" maskUnits="userSpaceOnUse" x="-2" y="-2" width="44" height="51" fill="black">
<rect fill="white" x="-2" y="-2" width="44" height="51"/>
<path d="M23.064 34.928H4.376C3.26667 34.928 2.392 34.6293 1.752 34.032C1.112 33.4347 0.792 32.6453 0.792 31.664C0.792 30.5547 1.09067 29.68 1.688 29.04L24.152 1.968C24.4933 1.54133 25.0053 1.22133 25.688 1.008C26.3707 0.751998 27.096 0.623997 27.864 0.623997C28.9733 0.623997 29.8907 0.986664 30.616 1.712C31.3413 2.39466 31.704 3.26933 31.704 4.336V27.632H39.064C39.064 30.192 38.616 32.048 37.72 33.2C36.8667 34.352 35.5013 34.928 33.624 34.928H31.704V41.136C31.704 43.0133 31 44.4 29.592 45.296C28.2267 46.1493 26.0507 46.576 23.064 46.576V34.928ZM23.576 27.632V14.768L25.944 11.632L25.432 11.312L11.992 27.632H23.576Z"/>
</mask>
<path d="M23.064 34.928H25.064V32.928H23.064V34.928ZM1.688 29.04L3.15011 30.4046L3.18989 30.362L3.22712 30.3171L1.688 29.04ZM24.152 1.968L25.6911 3.24514L25.7026 3.23137L25.7137 3.21739L24.152 1.968ZM25.688 1.008L26.2846 2.91696L26.3379 2.90029L26.3903 2.88066L25.688 1.008ZM30.616 1.712L29.2018 3.12621L29.2232 3.14763L29.2453 3.1684L30.616 1.712ZM31.704 27.632H29.704V29.632H31.704V27.632ZM39.064 27.632H41.064V25.632H39.064V27.632ZM37.72 33.2L36.1413 31.9721L36.1269 31.9907L36.1129 32.0095L37.72 33.2ZM31.704 34.928V32.928H29.704V34.928H31.704ZM29.592 45.296L30.652 46.992L30.6589 46.9877L30.6658 46.9833L29.592 45.296ZM23.064 46.576H21.064V48.576H23.064V46.576ZM23.576 27.632V29.632H25.576V27.632H23.576ZM23.576 14.768L21.9799 13.5628L21.576 14.0977V14.768H23.576ZM25.944 11.632L27.5401 12.8372L28.8565 11.0938L27.004 9.93601L25.944 11.632ZM25.432 11.312L26.492 9.616L25.0038 8.68586L23.8881 10.0406L25.432 11.312ZM11.992 27.632L10.4481 26.3606L7.75403 29.632H11.992V27.632ZM23.064 32.928H4.376V36.928H23.064V32.928ZM4.376 32.928C3.63243 32.928 3.2948 32.7362 3.11664 32.5699L0.387364 35.4941C1.48921 36.5225 2.90091 36.928 4.376 36.928V32.928ZM3.11664 32.5699C2.93306 32.3986 2.792 32.1651 2.792 31.664H-1.208C-1.208 33.1256 -0.709064 34.4708 0.387364 35.4941L3.11664 32.5699ZM2.792 31.664C2.792 30.9204 2.98383 30.5828 3.15011 30.4046L0.225889 27.6754C-0.802495 28.7772 -1.208 30.1889 -1.208 31.664H2.792ZM3.22712 30.3171L25.6911 3.24514L22.6129 0.690853L0.148877 27.7629L3.22712 30.3171ZM25.7137 3.21739C25.7398 3.18482 25.8661 3.04773 26.2846 2.91696L25.0915 -0.900961C24.1446 -0.605061 23.2469 -0.102152 22.5903 0.718607L25.7137 3.21739ZM26.3903 2.88066C26.8366 2.71329 27.3229 2.624 27.864 2.624V-1.376C26.8691 -1.376 25.9048 -1.2093 24.9858 -0.864656L26.3903 2.88066ZM27.864 2.624C28.4906 2.624 28.884 2.80838 29.2018 3.12621L32.0302 0.297785C30.8974 -0.835054 29.4561 -1.376 27.864 -1.376V2.624ZM29.2453 3.1684C29.5383 3.44418 29.704 3.7771 29.704 4.336H33.704C33.704 2.76156 33.1444 1.34515 31.9867 0.255596L29.2453 3.1684ZM29.704 4.336V27.632H33.704V4.336H29.704ZM31.704 29.632H39.064V25.632H31.704V29.632ZM37.064 27.632C37.064 30.047 36.6245 31.3509 36.1413 31.9721L39.2987 34.4279C40.6075 32.7451 41.064 30.337 41.064 27.632H37.064ZM36.1129 32.0095C35.7484 32.5015 35.0822 32.928 33.624 32.928V36.928C35.9205 36.928 37.9849 36.2025 39.3271 34.3905L36.1129 32.0095ZM33.624 32.928H31.704V36.928H33.624V32.928ZM29.704 34.928V41.136H33.704V34.928H29.704ZM29.704 41.136C29.704 42.4305 29.269 43.1309 28.5183 43.6087L30.6658 46.9833C32.731 45.6691 33.704 43.5962 33.704 41.136H29.704ZM28.532 43.6C27.6558 44.1477 25.9487 44.576 23.064 44.576V48.576C26.1526 48.576 28.7976 48.151 30.652 46.992L28.532 43.6ZM25.064 46.576V34.928H21.064V46.576H25.064ZM25.576 27.632V14.768H21.576V27.632H25.576ZM25.1721 15.9732L27.5401 12.8372L24.3479 10.4268L21.9799 13.5628L25.1721 15.9732ZM27.004 9.93601L26.492 9.616L24.372 13.008L24.884 13.328L27.004 9.93601ZM23.8881 10.0406L10.4481 26.3606L13.5359 28.9034L26.9759 12.5834L23.8881 10.0406ZM11.992 29.632H23.576V25.632H11.992V29.632Z" fill="#FD0050" mask="url(#path-1-outside-1_318_207)"/>
</svg>
