<svg width="30" height="23" viewBox="0 0 30 23" fill="none" xmlns="http://www.w3.org/2000/svg">
<path d="M5.00356 3.75606C5.0427 3.79327 5.11078 3.78086 5.13135 3.73275L6.28933 1.02551C6.30819 0.981406 6.3681 0.966343 6.40892 0.995439L9.59891 3.26918C9.61611 3.28143 9.63814 3.28648 9.65962 3.28309L12.5001 2.83407C12.6348 2.81278 12.7651 2.77277 12.8866 2.71542L14.0725 2.15557C14.1012 2.14202 14.1361 2.1462 14.16 2.16606L15.0468 2.90248C15.063 2.9159 15.0722 2.93496 15.0722 2.95495V3.78073C15.0722 3.84713 14.9814 3.87705 14.9352 3.82588L14.2733 3.09301C14.1896 3.00037 14.0387 2.98965 13.9404 3.06935L13.6126 3.3352C13.4381 3.47668 13.2228 3.56912 12.9924 3.60145L10.3945 3.96603C10.3534 3.9718 10.33 4.01213 10.3477 4.04657L10.5326 4.40639C10.7283 4.78709 10.7162 5.23002 10.4999 5.60127C10.3758 5.81433 10.2108 6.00519 10.0128 6.16471L9.2821 6.75342C9.24356 6.78448 9.18327 6.77318 9.16115 6.73076L8.03871 4.57853C8.03419 4.56987 8.0278 4.56214 8.01992 4.55581L7.05759 3.78264C7.01076 3.74501 6.93704 3.7709 6.9297 3.82754L6.6408 6.05693C6.63842 6.07533 6.644 6.09385 6.65635 6.10852L7.62352 7.25778C7.65215 7.29179 7.64141 7.34111 7.60074 7.36247L6.38382 8.00173C6.35109 8.01893 6.30957 8.012 6.28558 7.98532L5.28929 6.87772C5.23776 6.82043 5.1369 6.86503 5.15389 6.9376L5.33294 7.70259C5.34326 7.74669 5.30654 7.78828 5.25727 7.78828H4.85652C4.7905 7.78828 4.7548 7.85911 4.79765 7.9051L5.92919 9.1197C5.95425 9.1466 5.95382 9.18629 5.92818 9.21272L4.55643 10.6271C3.98192 11.2195 3.47318 11.8627 3.03771 12.5473L2.64016 13.1722C2.60232 13.2317 2.67 13.3006 2.73863 13.2725L5.88434 11.9841L7.25699 11.4165L7.87611 11.2375C8.83159 10.9613 9.86492 11.0185 10.7771 11.3981C10.7966 11.4062 10.8183 11.3917 10.8159 11.3722L10.6322 9.91528C10.6293 9.89188 10.6615 9.87938 10.6778 9.8976L12.1561 11.5477C12.1933 11.5892 12.2653 11.5793 12.2876 11.5297L13.2652 9.34799C13.2752 9.32574 13.3108 9.32977 13.3146 9.35357L14.2387 15.1992C14.2497 15.2685 14.1559 15.3088 14.1047 15.2569L12.9873 14.1226C12.4937 13.6216 11.8891 13.2226 11.214 12.9521C10.9528 12.8475 10.6823 12.7635 10.4054 12.701L10.1092 12.6342C9.56903 12.5124 9.01115 12.4696 8.45635 12.5076C7.46658 12.5754 6.53375 12.9575 5.81905 13.5881L2.17891 16.7996C2.13073 16.8421 2.16019 16.9168 2.22691 16.9213L3.1612 16.9844C4.22249 17.0561 5.2767 17.1981 6.31553 17.4095L6.53177 17.4535C7.20561 17.5906 7.86381 17.7857 8.4976 18.0361L9.59466 18.4696C9.62628 18.4821 9.66312 18.4739 9.68503 18.4496L10.3319 17.7312C10.7753 17.2387 11.2699 16.7868 11.8088 16.382L12.6457 15.7534C12.6855 15.7234 12.7457 15.7369 12.7659 15.7803L13.4339 17.2137L13.9468 18.7351C13.9699 18.8038 14.0456 18.8457 14.1227 18.8326L14.5823 18.755C15.08 18.671 15.594 18.7348 16.0493 18.9371L16.5691 19.1682C16.6511 19.2046 16.6088 19.3182 16.5196 19.3013L14.9408 19.0019C14.9254 18.999 14.9095 19.0004 14.8951 19.0059L14.1478 19.294C13.8287 19.417 13.5637 19.6343 13.395 19.9112C13.1564 20.3029 13.1465 20.7777 13.3687 21.1775L13.4255 21.2797C13.5731 21.5454 13.8255 21.7499 14.1316 21.8518L14.2276 21.8838C14.6452 22.0228 15.1022 22.0268 15.5227 21.8951L15.6625 21.8514C15.6793 21.8461 15.6938 21.8633 15.684 21.8768C15.3761 22.3007 14.8312 22.5266 14.2802 22.4591L14.095 22.4364C13.8028 22.4005 13.5159 22.3346 13.2399 22.2398L13.0956 22.1903C12.5293 21.9959 12.009 21.7039 11.5628 21.3302L9.5587 19.652C8.93236 19.1275 8.18679 18.7367 7.37567 18.5077C6.61922 18.2941 5.84284 18.1449 5.05643 18.062L4.52868 18.0064C3.61887 17.9105 2.70147 17.8898 1.78761 17.9446L0.79227 18.0042L0.0888324 18.0984C0.0180715 18.1079 -0.0276666 18.032 0.0188545 17.9822L3.91758 13.8148C3.96961 13.7591 3.90653 13.6766 3.83164 13.7023L1.33527 14.5594C1.3141 14.5667 1.29369 14.5473 1.30243 14.5282L2.25347 12.4503C2.6645 11.617 3.2073 10.8437 3.86439 10.1552L4.82626 9.14737C4.84958 9.12293 4.85179 9.08711 4.83161 9.06042L4.59783 8.75126C4.11543 8.1133 3.74649 7.40939 3.50473 6.66571L3.33502 6.14362C3.32832 6.123 3.35276 6.10559 3.37294 6.1166L4.23973 6.58937C4.29131 6.6175 4.35672 6.58347 4.35672 6.5285V5.01134L4.49764 3.4447C4.5031 3.38393 4.5843 3.35745 4.6305 3.40137L5.00356 3.75606Z" fill="url(#paint0_linear_318_321)"/>
<path d="M24.9195 3.75606C24.8803 3.79327 24.8123 3.78086 24.7917 3.73275L23.6337 1.02551C23.6148 0.981406 23.5549 0.966343 23.5141 0.995439L20.3241 3.26918C20.3069 3.28143 20.2849 3.28648 20.2634 3.28309L17.2315 2.8038C17.2237 2.80257 17.2162 2.80026 17.2092 2.79695L15.8505 2.15557C15.8218 2.14202 15.787 2.1462 15.7631 2.16606L14.8792 2.89997C14.8613 2.91484 14.852 2.93651 14.8541 2.95855L14.9313 3.776C14.9374 3.8407 15.0274 3.86441 15.0701 3.81257L15.5 3.29103C15.6632 3.09292 15.9763 3.06423 16.1792 3.22878C16.4394 3.43973 16.7604 3.57756 17.1039 3.62577L19.5084 3.96321C19.5595 3.97039 19.5887 4.02057 19.5667 4.06341L19.2282 4.72196C19.1346 4.90407 19.1404 5.11594 19.2438 5.29353L19.483 5.70405C19.5675 5.84915 19.6799 5.97912 19.8147 6.08775L20.6409 6.75342C20.6795 6.78448 20.7398 6.77318 20.7619 6.73076L21.8843 4.57853C21.8888 4.56987 21.8952 4.56214 21.9031 4.55581L22.8654 3.78264C22.9123 3.74501 22.986 3.7709 22.9933 3.82754L23.2822 6.05693C23.2846 6.07533 23.279 6.09385 23.2667 6.10852L22.2995 7.25778C22.2709 7.29179 22.2816 7.34111 22.3223 7.36247L23.5392 8.00173C23.5719 8.01893 23.6135 8.012 23.6375 7.98532L24.6337 6.87772C24.6853 6.82043 24.7861 6.86503 24.7691 6.9376L24.5901 7.70259C24.5798 7.74669 24.6165 7.78828 24.6658 7.78828H25.0665C25.1325 7.78828 25.1682 7.85911 25.1254 7.9051L23.9938 9.1197C23.9688 9.1466 23.9692 9.18629 23.9949 9.21272L25.5169 10.7821C25.9914 11.2714 26.4117 11.8027 26.7714 12.3682L27.2829 13.1722C27.3207 13.2317 27.253 13.3006 27.1844 13.2725L24.0387 11.9841L21.9919 11.2918C21.0764 10.9822 20.0644 11.0159 19.1758 11.3857C19.1432 11.3992 19.1068 11.375 19.1109 11.3424L19.2908 9.91528C19.2938 9.89188 19.2616 9.87938 19.2452 9.8976L17.7669 11.5477C17.7297 11.5892 17.6577 11.5793 17.6355 11.5297L16.6578 9.34799C16.6479 9.32574 16.6122 9.32977 16.6085 9.35357L15.6843 15.1992C15.6734 15.2685 15.7671 15.3088 15.8184 15.2569L16.8081 14.2522C17.3859 13.6657 18.0934 13.1987 18.8837 12.8822C19.0287 12.8241 19.1789 12.7775 19.3326 12.7428L20.0523 12.5804C20.4345 12.4942 20.8292 12.464 21.2217 12.4909C22.3728 12.5697 23.4621 12.9986 24.3163 13.7096L24.4593 13.8286L25.4335 14.761L27.7535 16.8079C27.8001 16.849 27.7743 16.9212 27.7101 16.9291L24.57 17.315L24.0759 17.3927C22.9481 17.57 21.8473 17.8694 20.7967 18.2845L20.3284 18.4696C20.2968 18.4821 20.2599 18.4739 20.238 18.4496L19.4649 17.5909C19.1055 17.1917 18.7045 16.8255 18.2677 16.4973L17.2802 15.7555C17.2395 15.7249 17.178 15.7397 17.159 15.7847L16.5113 17.315L15.9887 18.7137C15.9586 18.7941 15.8667 18.8406 15.7763 18.821L15.7274 18.8105C15.178 18.6916 14.5999 18.7667 14.1084 19.0207L12.3491 19.9298L13.7802 19.4126C14.4842 19.1582 15.2656 19.1489 15.9765 19.3865C16.1638 19.4491 16.3187 19.5738 16.4106 19.7358L16.5188 19.9265C16.7357 20.3091 16.7302 20.7685 16.5075 21.1483C16.3251 21.4592 16.027 21.7038 15.6687 21.834L14.8536 22.1301C14.8375 22.136 14.8196 22.1367 14.803 22.1322L12.8448 21.5968C12.7637 21.5746 12.7081 21.6707 12.7738 21.7196L13.5676 22.3112C13.5767 22.318 13.5875 22.3228 13.599 22.3252L13.9486 22.3991C14.53 22.522 15.1317 22.5424 15.7214 22.4594L15.8334 22.4436C16.1222 22.4029 16.4057 22.3351 16.6793 22.2411C17.3434 22.0131 17.9536 21.6707 18.477 21.2324L20.1187 19.8577C20.9071 19.1975 21.8434 18.7029 22.8622 18.4083C23.5119 18.2205 24.1812 18.095 24.8593 18.0338L25.237 17.9998C26.2519 17.9083 27.2732 17.8929 28.2908 17.9539L29.1308 18.0042L29.9704 18.1167C29.994 18.1198 30.0092 18.0945 29.9937 18.0779L26.0055 13.8148C25.9534 13.7591 26.0165 13.6766 26.0914 13.7023L28.5895 14.56C28.6104 14.5672 28.6307 14.5483 28.6226 14.5293L27.8024 12.6125C27.3181 11.6451 26.676 10.7509 25.898 9.96033L25.0981 9.14742C25.0741 9.12303 25.0715 9.08674 25.0919 9.05975C25.7289 8.21742 26.216 7.28801 26.5352 6.30609L26.5503 6.25961C26.5704 6.19775 26.4971 6.1455 26.4365 6.17853L25.6833 6.58937C25.6317 6.6175 25.5663 6.58347 25.5663 6.5285V5.01134L25.4254 3.4447C25.4199 3.38393 25.3387 3.35745 25.2925 3.40137L24.9195 3.75606Z" fill="url(#paint1_linear_318_321)"/>
<path d="M18.6335 14.6901C18.8254 14.802 19.0407 14.8761 19.2656 14.9076L19.3153 14.9145C19.4524 14.9337 19.592 14.9329 19.7289 14.9123L19.8416 14.8952C19.995 14.8721 20.1391 14.8125 20.2596 14.7225C20.3855 14.6284 20.4809 14.5045 20.5354 14.3642L20.7332 13.8548C20.7425 13.8307 20.7819 13.8393 20.7783 13.8647L20.7029 14.3973C20.6698 14.6305 20.5385 14.8426 20.3369 14.9883C20.2665 15.0392 20.1883 15.0813 20.1054 15.1129C20.0126 15.1483 19.9141 15.1707 19.814 15.179L19.7621 15.1833C19.5748 15.1989 19.386 15.1779 19.2083 15.1218L19.1355 15.0989C18.9375 15.0364 18.754 14.9406 18.5942 14.8166L17.8175 14.2138L18.6335 14.6901Z" fill="url(#paint2_linear_318_321)"/>
<path d="M11.3338 14.6901C11.1419 14.802 10.9267 14.8761 10.7017 14.9076L10.6521 14.9145C10.5149 14.9337 10.3754 14.9329 10.2385 14.9123L10.2098 14.9079C10.0013 14.8765 9.80546 14.7955 9.64175 14.6732C9.55778 14.6104 9.48341 14.5376 9.42062 14.4567L9.0354 13.9603C9.01785 13.9377 8.97945 13.9565 8.99029 13.9825L9.18822 14.4556C9.27183 14.6555 9.41283 14.831 9.59633 14.9637L9.62974 14.9878C9.70066 15.0391 9.77891 15.0812 9.86231 15.113C9.95509 15.1484 10.0532 15.1707 10.1533 15.179L10.2052 15.1833C10.3925 15.1989 10.5813 15.1779 10.7591 15.1218L10.8318 15.0989C11.0298 15.0364 11.2134 14.9406 11.3731 14.8166L12.1498 14.2138L11.3338 14.6901Z" fill="url(#paint3_linear_318_321)"/>
<defs>
<linearGradient id="paint0_linear_318_321" x1="15" y1="0.980469" x2="15" y2="28.4642" gradientUnits="userSpaceOnUse">
<stop stop-color="#50C0FF"/>
<stop offset="1" stop-color="#50C0FF"/>
</linearGradient>
<linearGradient id="paint1_linear_318_321" x1="15" y1="0.980469" x2="15" y2="28.4642" gradientUnits="userSpaceOnUse">
<stop stop-color="#50C0FF"/>
<stop offset="1" stop-color="#50C0FF"/>
</linearGradient>
<linearGradient id="paint2_linear_318_321" x1="15" y1="0.980469" x2="15" y2="28.4642" gradientUnits="userSpaceOnUse">
<stop stop-color="#50C0FF"/>
<stop offset="1" stop-color="#50C0FF"/>
</linearGradient>
<linearGradient id="paint3_linear_318_321" x1="15" y1="0.980469" x2="15" y2="28.4642" gradientUnits="userSpaceOnUse">
<stop stop-color="#50C0FF"/>
<stop offset="1" stop-color="#50C0FF"/>
</linearGradient>
</defs>
</svg>
